<svg xmlns="http://www.w3.org/2000/svg" xmlns:xlink="http://www.w3.org/1999/xlink" viewBox="0 0 500 500"><defs><style>.cls-1{opacity:0.6;isolation:isolate;fill:url(#linear-gradient);}.cls-2{fill:url(#linear-gradient-2);}.cls-3{fill:url(#linear-gradient-3);}</style><linearGradient id="linear-gradient" y1="250" x2="500" y2="250" gradientTransform="matrix(1, 0, 0, -1, 0, 500)" gradientUnits="userSpaceOnUse"><stop offset="0" stop-color="#fff200"/><stop offset="1" stop-color="#00aeef"/></linearGradient><linearGradient id="linear-gradient-2" x1="105" y1="235" x2="406" y2="235" gradientUnits="userSpaceOnUse"><stop offset="0" stop-color="#f39f1e"/><stop offset="1" stop-color="#00aeef"/></linearGradient><linearGradient id="linear-gradient-3" x1="22.42" y1="245.48" x2="493.49" y2="245.48" gradientTransform="matrix(1, 0, 0, 1, 0, 0)" xlink:href="#linear-gradient"/></defs><title>meaning_plain_3</title><g id="Layer_1" data-name="Layer 1"><rect class="cls-1" width="500" height="500"/></g><g id="Layer_2" data-name="Layer 2"><rect class="cls-2" x="105" y="90" width="301" height="290"/><path class="cls-3" d="M211,176c-4.61,48.91,19.47,95.67,61,119,48.7,27.36,106.89,14.34,141-17,50.21-46.13,43.88-127.94,14-174C375.13,24,233.15,22.28,143,77,79.37,115.63,34.5,186.68,30,266c-.71,12.48-5.38,123,70,181,61.17,47.05,141.68,33.8,262,14,83.88-13.8,126.64-14.81,131-32,13.92-54.93-270.6-194-314-143-20.05,23.57,16.71,81.41-1,92-13.56,8.1-51.94-15.72-70-51-29-56.76,22.29-88.92-2-156-5.92-16.35-7.91-11.51-67-114C22.84,29,21.18,25.48,23,21c15.3-37.71,194.66,57.36,374,5,18.26-5.33,39.23-13,47-4,20.27,23.43-70.53,135.4-154,230"/></g></svg>