<svg id="Layer_1" data-name="Layer 1" xmlns="http://www.w3.org/2000/svg" xmlns:xlink="http://www.w3.org/1999/xlink" viewBox="0 0 500 500"><defs><style>.cls-1{opacity:0.6;fill:url(#linear-gradient);}.cls-2{fill:url(#linear-gradient-2);}.cls-3{fill:#fff;}</style><linearGradient id="linear-gradient" y1="250" x2="500" y2="250" gradientUnits="userSpaceOnUse"><stop offset="0" stop-color="#fff200"/><stop offset="1" stop-color="#00aeef"/></linearGradient><linearGradient id="linear-gradient-2" x1="88.67" y1="283" x2="366.67" y2="283" xlink:href="#linear-gradient"/></defs><title>meaning</title><rect class="cls-1" width="500" height="500"/><rect class="cls-2" x="88.67" y="155" width="278" height="256"/><path class="cls-3" d="M58.16,86.26c.91,16.34,6.56,31.29,12.85,46.23,6.45,15.29,13.42,30.35,20.43,45.4,2.29,4.89,9.33,6.13,13.69,3.58,5-2.93,5.87-8.76,3.58-13.68C102.3,154,95.86,140.25,89.92,126.27c-5.41-12.74-11-26-11.76-40-.71-12.8-20.72-12.89-20,0Z"/><path class="cls-3" d="M43.38,97.21C56.9,99.8,69.93,96.9,82,90.6c11.52-6,21.14-15,31.46-22.74,4.31-3.24,6.54-8.64,3.58-13.68-2.48-4.25-9.33-6.85-13.68-3.59C88.26,62,69.7,82,48.7,77.93c-5.3-1-10.79,1.48-12.3,7-1.35,4.89,1.65,11.28,7,12.3Z"/><path class="cls-3" d="M101.22,92.83a183.7,183.7,0,0,0,39.8,56c5.71,5.49,18,2,17.08-7.07a72.83,72.83,0,0,0-4-16.85c-1.07-3-4.68-10.07-3.8-13l-2.57,4.41.74-.79-4.41,2.57c-1.8.73-3.36-1.68-.5.4a40.54,40.54,0,0,0,3.88,2.13q4.23,2.42,8.28,5.13a121,121,0,0,1,14.61,11.61c9.47,8.69,23.65-5.41,14.15-14.14a155.9,155.9,0,0,0-20.14-15.72c-6.42-4.18-15.2-10.7-23.3-9.28-21.61,3.82-4.21,31.54-2.94,43.53l17.07-7.07a168.58,168.58,0,0,1-36.68-52c-2.24-4.91-9.36-6.12-13.68-3.59-5,3-5.84,8.75-3.59,13.68Z"/><path class="cls-3" d="M190.5,107.87q12.87.21,25.72.41c8.94.12,17.25-2.09,20.63-11.29,2.68-7.33,2.81-16.9-2.46-23.1-4.91-5.8-12.64-7.32-19.92-7.27-13.21.09-27.48,5.29-34.33,17.28-4.18,7.32-5.14,16.32-5.58,24.58-.38,7.14-.22,14.65,2.73,21.28,8.46,19,31.55,11.23,43.18,0,9.29-8.94-4.86-23.08-14.14-14.14-2.93,2.82-7.11,5.72-11.34,6-.88.06.51.25.58.37a13.22,13.22,0,0,1-1.07-5.3c-.51-8.12-1-21.56,6.66-26.66a22.49,22.49,0,0,1,10.54-3.34c1.9-.16,3.87.14,5.74-.09.29,0,1.49.57,1.73.26-.23.29.27-2.74-.55-.86a7.36,7.36,0,0,0-.19,2.73q-1.08,2.7.68.52c1.21-.67,1.48-1,.83-1-.6-.83-7.41-.1-8.67-.12l-20.77-.33c-12.87-.2-12.87,19.8,0,20Z"/><path class="cls-3" d="M54.44,214.07a113.13,113.13,0,0,0,11.93,29c4.9,8.31,11.46,19.45,22.51,18.94,5.2-.24,10.28-4.39,10-10l-1.11-22.87-15,8.64a247.19,247.19,0,0,1,23.41,16.75c5,4.09,15.57,3.86,16.71-4.41,1.3-9.34-2.25-16.34-5.93-24.71l-10-22.75-6,14.69,1.36-.35H97c2.08.68,5.38,4.29,7.43,5.9l9.05,7.11,18.11,14.22c4.24,3.34,10,4.14,14.14,0,3.46-3.46,4.27-10.78,0-14.14l-23.39-18.37C114.8,205.8,106,195.33,95.6,198c-6.82,1.77-8.5,9-6,14.69L97.23,230l3.61,8.19c.66,1.51,2.93,5.06,2.72,6.56l16.71-4.41a289.56,289.56,0,0,0-27.46-19.88c-6.24-4-15.41,1.16-15,8.63L78.88,252l10-10c2-.09,1.37,1.21.36-.56-.66-1.15-1.59-2.2-2.34-3.3a100,100,0,0,1-5.81-9.76,92,92,0,0,1-7.36-19.61c-3.23-12.45-22.53-7.17-19.29,5.32Z"/><path class="cls-3" d="M151.42,219.38c8.72.13,18.82,1.34,27.3-1.09,9.82-2.82,13.82-13.29,15.86-22.36,2.13-9.51,1.85-20.14-9.4-23.14-8.63-2.31-19.17-1.23-27.59,1.34-8.83,2.69-17.77,7.22-21.83,16-3.7,8-4.72,18.66-2,27.07,6.33,19.72,29.12,21.73,45.84,15.69,5.08-1.83,8.5-6.8,7-12.3-1.35-4.9-7.2-8.83-12.3-7s-11.5,4.1-16.86,1.93c-5-2-5.54-6.38-5-11.26.31-2.56.69-5.61,2.75-7.35s5.26-2.72,7.72-3.47a36.44,36.44,0,0,1,8.7-1.65,47.39,47.39,0,0,1,5.33,0c.89,0,1.78.11,2.66.22.81.29.4.05-1.23-.73l-2.57-4.41c.39,1-.82,5.33-1.45,7.39-.43,1.46-1.13,2.88-1.54,4.33-1.07,1.46-1.1,1.77-.08.91,1.13-.66.88-.7-.74-.12-6.77-.44-13.75.13-20.56,0-12.87-.18-12.88,19.82,0,20Z"/><path class="cls-3" d="M229.86,170.28c-7.1.85-14.07-1.18-20.84,2.09-5.79,2.8-9.4,8-11.44,14-4.71,13.81-.54,27.42,11.54,35.59,10.4,7,28,12.5,34.23-2.42,2.67-6.4,3-14.09,3.67-20.94a185,185,0,0,0,.73-23.42l-18.64,5a69.06,69.06,0,0,0,39.11,28c12.44,3.36,17.75-15.93,5.32-19.28a47.72,47.72,0,0,1-27.16-18.86c-5.29-7.7-19-5.51-18.63,5.05a175.5,175.5,0,0,1-1.16,27.31c-.25,2-2.1,8-1.53,9.23q7.55-1.92,3-2.77c-.92-.31-1.83-.64-2.74-1a35.08,35.08,0,0,1-3.66-1.75c-5.4-3-7.08-6.41-5.42-12.57.46-1.71.67-2.72,2.12-3.39,1.1-.51,3.83.13,5,.18a38.35,38.35,0,0,0,6.43-.12c5.36-.64,10-4.13,10-10,0-4.9-4.6-10.64-10-10Z"/><path class="cls-3" d="M258.65,174.59a78.45,78.45,0,0,0,17.58,13.88c6.34,3.63,14.8,8.52,22,4.5,8.77-4.9,5.51-14.75,3.61-22.5l-6.12-24.85-12.3,12.3c15.21,4.15,26.57,16.65,42.47,19.38,5.32.91,10.78-1.42,12.31-7,1.32-4.81-1.64-11.38-7-12.3-15.55-2.67-27.27-15.22-42.47-19.38-7.51-2-14.11,5-12.3,12.31l4.23,17.2,1.88,7.65c.53,2.13,1.74,6.24,1.7,7.35l1.36-5-.54,1,3.58-3.59-1,.46,5-1.36c-1.89-.12-7.6-4.07-9.85-5.55a58,58,0,0,1-10-8.58c-8.91-9.32-23,4.84-14.14,14.15Z"/><path class="cls-3" d="M325.88,127.14a134.44,134.44,0,0,0,18.77,54.71c6.74,10.94,24.05.91,17.27-10.09a111.17,111.17,0,0,1-16-44.62c-.65-5.36-4.12-10-10-10-4.89,0-10.66,4.6-10,10Z"/><path class="cls-3" d="M336.23,97.49c12.87,0,12.89-20,0-20s-12.89,20,0,20Z"/><path class="cls-3" d="M349.65,128.59a112.21,112.21,0,0,0,15.64,42.49,10.25,10.25,0,0,0,11.29,4.59c3.84-1.06,7.92-5.37,7.34-9.64-1.34-10-2.63-20.55-1.87-30.63l-1.37,5,.6-1.22-3.59,3.58.95-.53-5,1.36,1.09.06-5.05-1.36c2.85,1.26,5.22,5.51,7.33,8l9.38,11,18.14,21.34c3.5,4.12,10.54,3.6,14.14,0,4.08-4.08,3.51-10,0-14.14L399.87,146.5l-8.76-10.3c-2.84-3.34-5.52-7.37-9.18-9.85-9.19-6.21-19.43-.25-20,10.47-.5,9.63.71,19.68,2,29.21L382.56,161a98.23,98.23,0,0,1-13.63-37.71c-.79-5.35-7.55-8.29-12.3-7-5.73,1.57-7.77,6.93-7,12.3Z"/><path class="cls-3" d="M441.55,130.53c-13.3-7.33-27.39,2-30.84,15.66-3.12,12.29.73,26.81,12.23,33.38,11.25,6.41,25.77,2.63,31.71-9,2.88-5.63,3.6-12,4.37-18.18a143.31,143.31,0,0,0,1-22.11H440c.9,14.47,8.16,26.17,15.21,38.4,4.51,7.84,11.31,20.9,5.15,29.62-7.44,10.54-24.42,5.49-34.12,2.09a100.14,100.14,0,0,1-33.21-19.76c-9.58-8.54-23.78,5.56-14.14,14.14a124.8,124.8,0,0,0,43.64,25.45c16.1,5.37,34.78,6.91,48.66-4.58,12.88-10.65,13.4-28.6,7.91-43.23-2.81-7.49-6.89-14.19-10.89-21.08-3.79-6.51-7.73-13.36-8.21-21.05-.78-12.74-20.38-13-20,0a130.16,130.16,0,0,1-1,22.32c-.38,2.71-.92,9.38-3.4,10.12-3.51,1-5.55-3.63-5.91-6.36a13,13,0,0,1,.79-6.47,5.72,5.72,0,0,1,1.16-1.87c.77-.76,1.16.51-.17-.23,11.28,6.22,21.38-11,10.1-17.27Z"/><path class="cls-3" d="M220.89,269.73a45,45,0,0,0-34.72,16.68c-4.53,5.72-7.54,13-5.81,20.37,1.82,7.74,8.79,12.16,16,14.1,7.41,2,15.51,2,22.37-1.73,6.23-3.4,10.85-9.56,14.4-15.56,3.69-6.25,7-13.89,7-21.26.05-8.66-6.72-16.13-15.53-15.88-12.84.38-12.9,20.38,0,20q-3.82-6.1-4.7-2.6l-.48,1.68a36.8,36.8,0,0,1-1.53,4.11,43,43,0,0,1-4.88,8.17c-1.53,2-3.28,4-5.87,4.46-1.46.24-7.42-1.71-7.81-1.41-.07.05-1.72,1.73.42,1.86-.56,0,.75-2.1.89-2.37a19.05,19.05,0,0,1,5-5.48,25.18,25.18,0,0,1,15.18-5.14c12.86-.19,12.89-20.19,0-20Z"/><path class="cls-3" d="M275.59,231c-12.15-2.46-24.39,1.68-31.61,12-6.29,9-7.85,21.59-7.47,32.32.76,21.55,10.52,42.72,27,56.71,4.11,3.49,10.1,4,14.14,0,3.58-3.58,4.14-10.64,0-14.14a59.44,59.44,0,0,1-20.84-37.8c-1.12-8.87-1.14-32.74,13.43-29.79,5.29,1.07,10.8-1.53,12.3-7,1.36-4.94-1.66-11.23-7-12.31Z"/><path class="cls-3" d="M240.12,307.21a104.82,104.82,0,0,0,31.23-2.51c12.54-2.88,7.23-22.16-5.32-19.29a86.09,86.09,0,0,1-25.91,1.8c-5.4-.41-10,4.88-10,10,0,5.74,4.59,9.59,10,10Z"/><path class="cls-3" d="M164.68,359.18a148.51,148.51,0,0,0,16.95,69.29c5.22,10,11.82,21,20.12,28.75,5.05,4.7,12.29,7.07,18.69,3.48,5.74-3.23,7.61-9.95,7.22-16.09-.34-5.4-4.35-10-10-10-5.15,0-10.34,4.58-10,10a19.9,19.9,0,0,1,.08,2.44,2.53,2.53,0,0,0-.08-.72l3.59-3.59q5.76,1.8,4.11-.15c-.71-.73-1.38-1.49-2-2.28q-1.84-2.18-3.53-4.46-3.44-4.65-6.44-9.58a123.58,123.58,0,0,1-10.21-20.54,129.28,129.28,0,0,1-8.48-46.55c.06-12.87-19.94-12.89-20,0Z"/><path class="cls-3" d="M221.59,405.05q22.47,29.76,45.61,59l14.15-14.14-.68-.63c-9.42-8.76-23.59,5.35-14.14,14.14l.67.63a10.21,10.21,0,0,0,14.15,0c4.18-4.19,3.36-9.89,0-14.14q-21.56-27.24-42.49-55c-3.25-4.3-8.63-6.54-13.68-3.59-4.24,2.48-6.86,9.35-3.59,13.68Z"/><path class="cls-3" d="M224.61,387.14c12.86,0,12.89-20,0-20s-12.9,20,0,20Z"/><path class="cls-3" d="M341.61,331.18c4.8-13.44-8.85-25.44-21.76-22.69-13.44,2.86-18.92,16.33-20.89,28.5-2.1,13.06-1.53,26.29-2.92,39.4a145,145,0,0,1-9.42,37c-2,5,2.16,11,7,12.3,5.66,1.56,10.33-1.93,12.3-7a169.47,169.47,0,0,0,11-54.42c.4-9.19.3-18.55,2.45-27.54.84-3.5,2.25-5.34,3.83-8.33,0-.1.93-.36.94-.41,0,.15-2.05-1.34-1.77-2.12-1.82,5.08,2.05,10.94,7,12.3,5.54,1.52,10.48-1.88,12.3-7Z"/><path class="cls-3" d="M284.14,387.14c7.48,0,15,.07,22.45,0s15-2.26,17.1-10.42c3.16-12.48-16.12-17.81-19.29-5.32l-.26,1.05,2.57-4.41c.58-.31,1.16-.61,1.75-.9H284.14c-12.87,0-12.89,20,0,20Z"/><path class="cls-3" d="M339.21,414.92c20.45,4.22,51.23,10,62.94-12.87,9-17.51,10.1-48.93-12.33-56.47-21.82-7.35-42.95,12.71-52,30.65s-14.55,43.15-4.08,61.57c6.33,11.12,18.34,17.09,30.76,18.19,13.26,1.17,26.11-4,37.49-10.29s1.19-23.5-10.09-17.27c-10.74,5.92-26.92,12.59-37.77,3.14-10-8.7-5.72-26.93-2.15-37.67,3.86-11.61,12.54-25.81,25.19-29.25,14.38-3.91,11.23,16,8.79,24.27-1.89,6.41-5.88,9.44-12.55,9.75-9.64.46-19.49-1.09-28.9-3-5.28-1.09-10.8,1.53-12.3,7-1.36,4.95,1.67,11.21,7,12.3Z"/></svg>